<?xml version="1.0" standalone="no"?>
<!DOCTYPE svg PUBLIC "-//W3C//DTD SVG 20010904//EN"
 "http://www.w3.org/TR/2001/REC-SVG-20010904/DTD/svg10.dtd">
<svg version="1.0" xmlns="http://www.w3.org/2000/svg"
 width="300.000000pt" height="300.000000pt" viewBox="0 0 1024.000000 1024.000000"
 preserveAspectRatio="xMidYMid meet">

<g transform="translate(0.000000,1024.000000) scale(0.100000,-0.100000)"
fill="#000000" stroke="none">
<path d="M0 5120 l0 -5120 5120 0 5120 0 0 5120 0 5120 -5120 0 -5120 0 0
-5120z m5129 4340 c104 -53 163 -203 112 -286 -11 -18 -35 -44 -54 -59 l-34
-27 24 -24 c25 -25 23 15 26 -564 0 -30 0 -79 -1 -107 l-2 -53 -55 0 -55 0 0
354 0 353 -37 7 c-81 13 -75 24 -73 -146 2 -84 2 -246 1 -360 l-1 -208 -55 0
-55 0 0 364 c0 356 0 365 20 371 24 8 26 23 5 32 -27 10 -65 98 -65 150 0 89
61 180 140 212 42 17 118 13 159 -9z m303 -311 c1 -28 1 -224 -1 -435 l-3
-384 -57 0 -56 0 -2 426 c-2 234 0 430 3 435 3 5 29 9 59 9 l53 0 4 -51z
m-684 -401 l2 -416 -51 -7 c-27 -4 -52 -5 -54 -4 -8 8 -15 728 -8 779 7 50 10
55 38 61 17 4 39 6 50 5 20 -1 20 -9 23 -418z m2507 63 c129 -58 165 -223 69
-316 -120 -114 -289 -67 -329 92 l-12 48 -484 -3 -484 -3 -70 -61 c-38 -33
-120 -109 -182 -169 -116 -114 -133 -122 -188 -97 -14 6 -25 16 -25 21 0 11
382 386 408 401 9 5 231 8 527 7 l511 -2 19 22 c11 12 40 35 64 51 54 34 115
37 176 9z m-3481 -91 c45 -22 92 -84 102 -136 13 -69 -70 -183 -147 -204 -61
-17 -149 10 -191 57 -22 24 -48 97 -48 135 0 33 29 96 56 119 60 52 156 64
228 29z m2354 -226 c12 -8 22 -22 22 -30 0 -19 -60 -84 -171 -185 l-89 -81
-37 12 c-21 7 -42 17 -48 22 -12 11 261 277 285 278 9 0 26 -7 38 -16z m-2252
-43 c-3 -5 15 -26 39 -47 26 -22 43 -44 40 -52 -2 -7 0 -10 5 -7 19 12 31 -6
14 -22 -19 -19 -3 -33 30 -26 l21 5 -21 -19 c-11 -10 -18 -25 -16 -32 7 -22
-49 21 -118 91 l-61 61 27 28 c26 27 52 40 40 20z m3155 -49 c4 -4 10 -21 13
-38 5 -23 3 -33 -8 -37 -9 -4 -165 -7 -348 -7 l-332 -2 -81 -72 c-44 -39 -95
-84 -113 -99 l-33 -27 -40 21 -40 20 61 67 c34 37 94 96 133 131 l71 64 355
-6 c195 -4 358 -10 362 -15z m958 -57 c44 -51 56 -98 41 -170 -9 -43 -21 -68
-44 -91 l-31 -31 -385 -6 c-212 -4 -499 -7 -638 -7 -205 0 -264 -3 -312 -17
-75 -20 -149 -9 -248 37 -61 28 -64 32 -46 44 35 25 299 36 855 36 299 0 567
3 596 6 l52 7 -14 35 c-42 98 8 192 101 192 35 0 47 -6 73 -35z m-4759 -43
c48 -24 80 -75 80 -127 0 -80 -96 -166 -168 -149 -118 29 -161 113 -109 214
38 74 121 100 197 62z m804 -37 c-7 -16 -24 -21 -24 -6 0 8 7 13 27 20 1 1 0
-6 -3 -14z m82 -74 c-11 -17 -46 -13 -46 5 0 8 -5 12 -10 9 -12 -8 -65 23 -56
32 3 4 16 -2 28 -13 20 -18 21 -18 15 0 -6 14 -3 17 8 12 8 -3 15 0 15 7 0 6
12 0 26 -15 15 -14 23 -31 20 -37z m1087 9 c205 -11 374 -36 572 -86 807 -202
1471 -584 2090 -1199 111 -110 391 -433 516 -594 45 -59 119 -177 119 -191 0
-41 -164 -284 -349 -515 -308 -385 -577 -640 -974 -928 -321 -232 -594 -381
-987 -539 -97 -39 -377 -123 -381 -115 0 1 -2 106 -4 232 l-4 230 127 39 c378
115 781 340 1140 638 219 181 561 548 770 825 68 90 89 102 187 104 112 3 111
15 -1 23 l-111 8 -64 91 c-105 151 -203 262 -393 452 -214 213 -286 277 -457
405 -241 180 -554 356 -794 445 -483 181 -773 240 -1160 239 -286 -1 -519 -36
-804 -120 -146 -43 -402 -140 -516 -196 -55 -27 -282 -150 -324 -176 -161
-100 -452 -328 -609 -477 -192 -183 -352 -368 -482 -558 -30 -43 -67 -89 -83
-103 -26 -22 -34 -24 -100 -18 -40 4 -78 12 -86 18 -11 9 -13 8 -9 -4 4 -14
23 -19 130 -34 63 -9 89 -32 198 -179 211 -281 483 -570 725 -771 86 -71 362
-263 486 -338 151 -92 476 -243 610 -284 l54 -17 0 -233 c0 -129 -2 -234 -5
-234 -23 1 -247 85 -430 161 -223 94 -630 323 -820 463 -461 337 -929 817
-1220 1251 -29 44 -63 92 -76 107 -12 15 -30 48 -39 73 l-18 45 98 145 c53 80
127 180 164 223 36 42 98 115 138 162 163 194 410 429 653 624 366 292 722
499 1140 663 235 93 322 120 510 162 360 80 551 98 873 81z m3345 -126 c79
-33 132 -110 132 -194 0 -67 -19 -109 -69 -152 -98 -84 -214 -77 -308 19 l-52
53 -183 -5 c-101 -3 -394 -6 -653 -7 l-470 -3 -100 49 c-91 44 -98 49 -76 57
14 5 32 9 40 8 9 -1 334 -1 723 0 l707 1 21 49 c23 52 66 99 115 124 39 21
125 21 173 1z m-574 -439 c35 -33 35 -77 -1 -100 -23 -15 -32 -16 -79 -5 -40
10 -112 11 -293 6 l-240 -8 -71 44 c-38 24 -70 46 -70 50 0 9 111 14 401 16
135 2 259 7 275 12 44 13 49 12 78 -15z m-2674 -80 c188 -31 376 -104 524
-202 93 -62 236 -189 236 -209 0 -5 -15 -18 -34 -28 -19 -10 -63 -47 -98 -82
-35 -35 -67 -63 -72 -61 -9 3 -98 -85 -145 -143 -14 -17 -20 -20 -21 -10 0 8
-12 21 -27 28 -16 7 -46 29 -68 49 -22 20 -33 32 -25 28 8 -5 11 -4 7 0 -4 5
-13 10 -20 11 -7 1 -55 23 -107 47 -90 43 -253 87 -324 87 l-26 0 0 163 c0 89
-4 167 -8 174 -4 7 -23 14 -42 15 l-35 3 -6 -140 c-4 -77 -7 -153 -8 -170 l-1
-30 -103 -17 c-157 -25 -321 -109 -452 -230 l-41 -37 -63 76 c-47 57 -60 78
-50 84 8 4 48 33 89 64 79 60 233 139 340 175 35 12 73 28 84 35 18 13 16 14
-20 8 -63 -9 -182 -51 -280 -100 -71 -35 -108 -61 -165 -118 l-74 -74 -105 89
c-58 49 -106 95 -108 103 -2 8 28 43 66 79 306 288 731 408 1182 333z m2687
-177 c42 -20 44 -69 4 -108 -37 -37 -70 -38 -110 -4 -60 50 -28 143 45 131 18
-3 46 -12 61 -19z m-4054 -69 c-10 -17 -42 -59 -71 -92 -61 -71 -180 -244
-219 -321 -15 -28 -48 -105 -74 -171 -43 -109 -49 -120 -74 -123 -15 -2 -31 0
-35 5 -5 4 7 48 27 98 24 61 32 94 26 104 -16 26 -28 22 -48 -16 -11 -20 -38
-49 -59 -65 -32 -23 -42 -26 -54 -15 -50 41 -41 146 21 239 43 64 67 88 67 67
0 -7 10 -3 25 11 14 13 27 21 30 18 3 -2 -9 -17 -25 -33 -17 -16 -30 -23 -30
-17 0 7 -5 12 -11 12 -8 0 -8 -5 1 -15 7 -8 9 -23 6 -32 -4 -10 6 -2 21 17 16
19 36 43 46 52 9 10 13 18 7 18 -18 0 -11 15 25 57 19 22 32 43 30 47 -3 3 -2
4 1 1 4 -2 14 4 23 14 37 42 223 146 246 137 8 -3 16 0 18 7 2 7 8 9 12 5 4
-3 -12 -20 -36 -37 -23 -17 -39 -31 -36 -31 11 0 137 71 143 81 3 5 7 9 10 9
3 0 -3 -14 -13 -31z m2501 -76 c52 -26 92 -51 90 -55 -3 -5 45 -60 108 -124
62 -63 115 -119 116 -125 2 -5 -5 -9 -15 -9 -27 0 -93 -58 -109 -96 -19 -44
-18 -115 2 -186 9 -32 14 -62 10 -65 -17 -18 -44 23 -81 123 -78 208 -153 340
-278 487 -37 43 -67 80 -67 83 0 2 19 -5 42 -17 54 -28 101 -41 92 -27 -6 10
20 7 81 -9 12 -2 7 4 -12 16 -18 11 -44 23 -58 27 -26 6 -45 24 -26 24 6 0 53
-21 105 -47z m-2390 -215 c68 -58 296 -282 296 -292 0 -3 -15 -29 -34 -58 -81
-128 -131 -250 -147 -363 -5 -38 -15 -73 -22 -77 -6 -4 -44 -8 -83 -8 l-71 0
8 47 c14 76 18 133 9 133 -4 0 -6 10 -2 22 3 14 2 19 -6 14 -9 -5 -9 0 -2 19
10 27 14 72 5 64 -8 -9 -52 -172 -65 -242 -14 -74 -14 -74 -100 -79 -42 -3
-45 -5 -48 -34 -4 -36 12 -44 90 -44 43 0 48 -2 47 -22 -1 -13 2 -51 6 -85 7
-62 6 -63 -18 -63 -40 0 -59 10 -47 25 8 9 4 17 -15 29 -14 9 -25 12 -25 7 0
-5 -9 -7 -20 -4 -11 3 -20 10 -20 15 0 5 -4 6 -10 3 -6 -4 -11 6 -11 22 -2 24
-2 25 -6 5 -2 -12 -9 -20 -14 -17 -5 4 -9 0 -10 -7 -1 -7 -5 -2 -9 12 -17 52
-10 -32 10 -127 48 -228 223 -589 276 -569 8 3 7 -4 -4 -24 -9 -16 -19 -27
-22 -25 -17 10 -123 170 -154 232 -49 95 -113 277 -137 385 -28 127 -35 350
-16 463 22 121 82 325 117 396 53 107 173 299 186 299 4 0 34 -23 68 -52z
m2121 0 c66 -74 127 -182 184 -328 118 -299 131 -610 41 -905 -58 -187 -131
-322 -267 -494 -2 -3 -13 5 -25 16 l-21 21 31 39 c17 21 40 57 52 81 21 39 23
41 36 25 10 -14 13 -14 14 -4 0 24 63 170 71 166 7 -5 29 72 29 105 0 12 -5
18 -10 15 -6 -3 -14 5 -19 18 -10 26 -30 37 -64 37 -20 -1 -21 -2 -4 -14 9 -7
17 -19 17 -26 0 -7 -3 -11 -6 -7 -3 3 -23 0 -43 -8 -33 -11 -39 -11 -48 4 -10
13 -10 12 -6 -8 4 -16 3 -22 -5 -17 -6 3 -16 -3 -22 -15 -22 -41 -20 -11 6 61
22 64 49 182 69 303 5 32 10 37 33 38 66 1 108 11 120 27 23 31 10 46 -48 55
-135 19 -123 13 -116 63 6 49 -19 174 -36 174 -5 0 -6 4 -3 10 3 5 1 18 -4 27
-8 15 -11 10 -11 -22 l-1 -40 -19 40 c-20 41 -20 37 -1 -55 5 -25 12 -75 16
-111 l7 -66 -73 5 c-41 2 -77 9 -80 14 -4 6 -9 34 -13 64 -7 65 -50 202 -82
265 -13 26 -47 77 -75 115 l-52 68 23 15 c14 9 44 33 68 54 33 28 49 36 65 31
18 -6 20 -5 10 8 -10 12 0 27 60 85 71 69 136 123 149 123 3 0 27 -24 53 -52z
m-1067 -84 c30 -21 28 -45 -7 -78 -24 -23 -32 -26 -49 -17 -36 19 -53 51 -40
75 21 40 57 47 96 20z m1751 -67 c95 -63 91 -177 -9 -244 -103 -71 -226 42
-190 173 7 25 26 59 42 76 26 27 33 30 73 25 25 -2 63 -16 84 -30z m-1476
-186 c28 -11 71 -78 142 -221 26 -52 50 -97 52 -100 2 -2 23 6 45 19 46 26
127 33 152 12 9 -8 16 -24 16 -36 0 -41 -30 -65 -97 -78 -35 -6 -63 -15 -63
-18 0 -4 18 -29 40 -55 50 -61 63 -106 58 -209 -4 -96 -35 -168 -84 -194 -28
-16 -30 -19 -18 -36 16 -22 18 -82 4 -119 -12 -32 -71 -51 -134 -42 -58 9 -76
33 -76 103 l0 53 -355 0 -355 0 0 -47 c0 -94 -19 -113 -114 -113 -81 0 -101
21 -101 103 0 53 -4 70 -21 89 -35 38 -53 83 -64 157 -15 110 3 182 69 265 38
48 39 56 2 56 -94 0 -172 88 -106 118 47 22 99 15 140 -18 21 -17 41 -27 45
-23 3 5 15 28 25 53 35 84 119 235 146 263 l27 27 301 0 c165 0 311 -4 324 -9z
m-1853 -155 c0 -8 -5 -27 -10 -41 l-10 -27 -88 6 c-48 3 -199 8 -337 11 -272
6 -352 12 -360 25 -13 20 221 37 558 39 209 1 247 -1 247 -13z m3660 -37 c247
-10 249 -10 227 -16 -16 -4 -16 -7 4 -31 l21 -27 -74 -8 c-40 -4 -228 -6 -418
-5 l-345 3 -6 42 -5 42 35 4 c64 7 361 5 561 -4z m-3712 -75 c28 -5 32 -10 32
-37 l0 -30 -107 7 c-60 4 -258 11 -441 15 -183 5 -336 11 -340 15 -4 4 4 17
18 28 24 20 34 20 415 15 214 -3 405 -9 423 -13z m3879 -111 c106 -6 112 -7
110 -27 -1 -14 4 -22 18 -24 11 -2 31 -12 45 -22 25 -19 22 -20 -396 -20 -232
0 -442 -3 -468 -6 l-46 -7 0 57 0 56 313 0 c171 0 362 -3 424 -7z m-3864 -23
c3 -3 7 -19 9 -35 l3 -30 -430 -3 c-236 -2 -463 0 -503 3 -71 7 -73 7 -56 26
9 10 23 19 31 19 7 0 12 3 12 8 -1 4 -1 11 0 15 1 8 926 5 934 -3z m11 -198
c5 -23 7 -44 5 -46 -2 -2 -250 -2 -551 1 -401 5 -548 9 -551 18 -3 6 3 22 13
36 l19 24 443 5 c244 3 481 6 528 5 l85 0 9 -43z m4061 26 c7 -8 5 -9 -8 -4
-30 10 -40 -4 -18 -25 12 -11 21 -23 21 -28 0 -13 -229 -21 -602 -21 l-348 0
0 45 0 44 158 4 c272 7 786 -3 797 -15z m-3392 -82 c22 -126 70 -255 124 -333
23 -35 43 -69 43 -77 0 -7 -21 -32 -46 -55 -51 -48 -58 -47 -97 22 -13 23 -41
69 -61 102 -50 82 -98 241 -120 398 l-5 37 73 0 72 0 17 -94z m1957 91 c0 -36
-31 -148 -67 -242 -42 -109 -175 -355 -191 -355 -8 1 -49 37 -75 67 -18 20
-17 22 22 74 43 57 105 196 120 269 5 25 12 75 16 112 l6 67 67 4 c37 2 75 4
85 5 9 1 17 1 17 -1z m-2609 -214 l5 -43 -375 -2 c-624 -4 -596 -4 -615 11
-10 8 -15 23 -13 33 4 12 0 18 -11 18 -10 0 -13 3 -6 10 13 13 118 16 589 16
l420 -1 6 -42z m3872 20 c125 -3 227 -10 227 -15 0 -4 -13 -8 -30 -8 -16 0
-30 -4 -30 -10 0 -5 7 -7 15 -4 20 8 19 2 -3 -24 -12 -13 -22 -18 -28 -12 -6
6 -15 5 -24 -1 -13 -9 -12 -10 3 -5 9 3 17 1 17 -5 0 -6 -21 -9 -47 -9 -27 1
-239 -1 -473 -4 l-425 -6 3 49 4 50 81 4 c167 6 491 7 710 0z m-3858 -170 c13
-57 89 -261 126 -334 62 -125 176 -285 278 -392 62 -65 82 -91 56 -72 -105 76
-201 167 -252 238 -12 18 -26 37 -31 43 -18 20 -36 59 -33 69 1 6 0 7 -4 3 -8
-8 -45 22 -45 37 0 5 5 3 10 -5 7 -10 10 -11 10 -2 0 7 -6 15 -13 18 -8 3 -14
10 -14 17 0 7 -27 70 -61 141 -34 71 -62 142 -62 157 l0 29 -394 0 c-352 0
-396 2 -411 16 -11 12 -13 20 -6 27 13 13 401 34 658 36 l183 1 5 -27z m3194
-72 c-10 -21 -36 -53 -58 -70 -22 -17 -52 -53 -67 -78 -24 -41 -27 -58 -26
-118 0 -38 6 -71 12 -73 24 -8 7 -20 -25 -17 -37 3 -57 -11 -34 -26 11 -7 10
-9 -3 -9 -10 0 -18 -4 -18 -9 0 -5 -7 -12 -16 -15 -8 -3 -12 -2 -9 3 3 5 0 13
-6 17 -7 4 -9 3 -5 -4 3 -6 2 -13 -3 -17 -6 -3 -8 -13 -5 -23 4 -13 3 -14 -4
-4 -7 10 -20 2 -55 -35 -25 -26 -56 -61 -68 -78 -43 -58 -154 -156 -224 -200
-17 -11 6 20 55 71 185 196 305 385 395 627 l37 97 73 0 73 0 -19 -39z m-645
-16 c-4 -8 -8 -15 -10 -15 -2 0 -4 7 -4 15 0 8 4 15 10 15 5 0 7 -7 4 -15z
m-2691 -86 c12 -6 39 -27 59 -47 65 -62 61 -136 -13 -211 -49 -51 -80 -53
-133 -9 -45 37 -66 81 -66 138 0 97 82 165 153 129z m3461 -10 c62 -49 79
-149 36 -211 -70 -103 -191 -89 -236 28 -15 40 -16 53 -5 92 7 26 17 53 24 61
43 52 134 67 181 30z m-2375 -98 c148 -110 264 -161 406 -182 39 -5 85 -12
103 -15 l32 -5 0 -64 c0 -75 5 -72 -111 -54 -126 19 -294 83 -420 159 -64 39
-134 86 -155 105 l-39 35 42 40 c23 22 47 40 53 40 5 0 46 -27 89 -59z m625
38 c31 -25 32 -33 6 -59 -28 -28 -64 -26 -78 5 -16 34 -15 40 4 59 21 21 36
20 68 -5z m674 -10 c23 -17 42 -34 42 -38 0 -12 -93 -97 -141 -129 -64 -43
-169 -94 -259 -127 -78 -28 -289 -76 -302 -68 -5 2 -8 33 -8 68 l0 64 58 6
c83 10 176 33 262 67 95 37 138 62 225 132 39 31 72 56 76 56 3 0 24 -14 47
-31z m-1610 -12 c23 -13 23 -13 -20 -48 -84 -68 -92 -72 -39 -20 52 50 54 54
36 67 -23 17 -8 18 23 1z m-568 -77 c6 -11 8 -20 6 -20 -3 0 -10 9 -16 20 -6
11 -8 20 -6 20 3 0 10 -9 16 -20z m2441 -27 c13 -16 12 -17 -3 -4 -10 7 -18
15 -18 17 0 8 8 3 21 -13z m-82 -93 c108 -102 108 -90 1 -175 -149 -118 -269
-185 -455 -253 -128 -46 -225 -65 -348 -66 -63 -1 -87 2 -87 12 0 7 16 13 43
14 23 0 53 2 67 4 54 5 270 55 339 79 81 27 241 110 316 164 64 45 165 141
165 155 0 6 -23 25 -51 41 -54 32 -99 77 -99 101 0 8 3 14 8 14 4 -1 49 -41
101 -90z m-1709 62 c0 -25 -17 -43 -75 -83 -27 -19 -53 -38 -58 -44 -16 -21
145 -144 301 -229 165 -90 339 -143 535 -162 71 -7 84 -16 23 -16 -20 0 -36
-3 -36 -7 0 -4 -33 -6 -73 -5 -90 1 -252 52 -413 129 -119 57 -170 90 -306
198 l-87 69 85 84 c47 46 90 84 95 84 5 0 9 -8 9 -18z m2331 -65 c-10 -9 -11
-8 -5 6 3 10 9 15 12 12 3 -3 0 -11 -7 -18z m-1527 -312 c-4 -8 -7 -15 -9 -15
-2 0 -5 7 -9 15 -3 9 0 15 9 15 9 0 12 -6 9 -15z m1476 10 c0 -2 -10 -9 -22
-15 -22 -11 -22 -10 -4 4 21 17 26 19 26 11z m-4260 -140 c61 -32 77 -101 41
-181 l-19 -41 136 -7 c74 -3 178 -6 229 -6 85 0 102 -3 161 -31 74 -34 105
-57 96 -71 -4 -6 -64 -7 -163 -2 -86 5 -227 7 -313 5 -139 -3 -159 -1 -164 13
-5 13 -10 14 -20 5 -26 -22 -84 20 -121 86 -50 92 -45 149 20 223 24 26 74 29
117 7z m5724 -15 c45 -40 53 -77 28 -133 -11 -25 -25 -48 -31 -51 -6 -4 -11
-27 -11 -51 0 -78 14 -75 -381 -75 -216 1 -349 4 -349 10 0 11 21 14 60 11 13
-1 30 5 36 14 6 9 16 15 20 14 20 -3 35 2 30 10 -12 20 235 51 407 51 59 0
107 3 107 6 0 3 -14 22 -31 44 -18 22 -33 54 -36 77 -5 35 -2 42 31 71 46 40
76 40 120 2z m-1684 15 c0 -8 -82 -47 -87 -41 -3 3 14 14 38 25 52 23 49 22
49 16z m-1772 -757 c-2 -460 -6 -610 -15 -619 -9 -9 -25 -10 -60 -3 l-48 9 -3
580 c-2 319 0 608 3 642 l7 63 60 -33 60 -32 -4 -607z m1125 590 c4 -35 6
-336 6 -670 l0 -606 -56 34 c-31 19 -60 34 -65 34 -4 0 -7 275 -6 611 3 532 5
613 18 619 31 15 85 39 91 39 4 1 9 -27 12 -61z m-963 -27 l55 -18 5 -124 c6
-138 -7 -1176 -15 -1225 -7 -43 -30 -39 -71 11 l-34 42 0 667 c0 366 1 666 3
666 1 0 27 -9 57 -19z m738 -575 c-2 -321 -5 -586 -8 -589 -3 -2 -29 -7 -57
-9 l-53 -5 0 531 c0 292 3 555 6 584 6 48 9 52 33 52 14 0 33 5 41 10 41 27
41 36 38 -574z m-451 -98 l2 -638 -44 -30 c-24 -16 -53 -42 -64 -56 l-21 -27
0 350 c0 192 3 506 7 697 l6 347 56 -3 56 -3 2 -637z m233 265 c0 -208 -3
-469 -7 -580 -6 -194 -7 -203 -27 -209 -12 -3 -38 -19 -59 -36 l-38 -30 5 609
c2 334 5 609 5 610 2 4 48 10 84 12 l37 1 0 -377z m3338 248 c74 -38 132 -122
132 -191 0 -38 -23 -93 -56 -137 -66 -86 -188 -112 -267 -56 -41 28 -96 111
-97 145 0 10 -10 20 -22 23 -13 3 -296 5 -629 3 -471 -2 -609 0 -621 9 -8 7
-19 9 -23 5 -5 -4 -6 0 -2 9 3 9 0 22 -6 28 -6 6 -9 12 -7 13 3 2 295 5 649 8
l644 5 19 35 c26 47 44 64 102 94 60 32 130 34 184 7z m-6740 -20 c31 -17 79
-75 91 -110 25 -77 5 -157 -58 -225 -121 -132 -359 -12 -338 170 7 63 46 135
87 158 57 34 163 37 218 7z m1368 -171 c23 0 15 -11 -71 -104 -60 -64 -103
-102 -111 -99 -8 3 -11 10 -8 17 3 6 -2 2 -10 -8 -9 -11 -16 -15 -16 -10 0 6
-22 16 -49 23 -48 12 -72 34 -48 45 7 3 -4 3 -24 0 -20 -3 -39 -1 -43 4 -3 5
4 10 17 10 12 0 37 4 55 10 23 8 32 7 32 0 0 -6 10 0 23 13 31 33 136 115 172
133 29 15 30 15 43 -9 8 -17 21 -25 38 -25z m204 -100 c14 -11 33 -20 43 -20
9 0 17 -5 17 -11 0 -13 -143 -155 -241 -239 -203 -174 -319 -285 -319 -303 0
-7 4 -6 10 3 5 8 10 10 10 5 0 -11 -35 -45 -47 -45 -3 0 -11 -7 -18 -16 -10
-14 -15 -15 -34 -4 -14 7 -21 8 -17 1 4 -5 -3 -15 -14 -21 -11 -6 -18 -15 -15
-19 2 -5 -2 -14 -11 -21 -12 -11 -21 -10 -49 3 -46 22 -87 86 -93 146 -5 51
11 96 30 85 6 -4 8 -3 4 4 -10 17 41 50 89 57 46 7 73 -2 113 -39 l24 -21 21
30 c22 32 131 143 237 240 36 33 100 93 143 133 42 39 80 72 85 72 4 0 18 -9
32 -20z m3993 -83 c614 -5 558 2 618 -81 37 -50 38 -97 4 -142 -35 -46 -90
-62 -133 -40 -18 9 -39 28 -49 42 -15 23 -15 30 -1 74 l16 48 -182 3 c-99 1
-208 3 -241 4 -33 1 -185 -3 -337 -8 l-278 -9 -29 24 c-17 12 -30 27 -30 32
-1 14 41 56 56 56 7 0 13 5 13 11 0 8 4 8 13 1 8 -7 203 -12 560 -15z m-3685
-43 c12 -8 22 -20 22 -26 0 -12 -370 -381 -448 -447 -40 -33 -51 -38 -51 -24
-1 41 -5 53 -15 50 -6 -2 -10 -13 -9 -23 1 -10 0 -13 -3 -6 -3 6 -10 10 -15 6
-5 -3 -9 0 -9 7 0 7 -6 4 -14 -6 -10 -14 -11 -25 -5 -37 8 -14 6 -18 -7 -18
-13 0 -14 -3 -5 -14 9 -11 9 -16 0 -22 -7 -4 -9 -3 -6 3 11 17 -16 33 -30 18
-9 -10 -9 -14 1 -18 11 -5 14 -23 7 -59 0 -5 -6 -8 -11 -8 -7 0 -7 6 0 20 13
24 -7 28 -30 8 -12 -11 -12 -10 -2 3 7 9 12 21 10 25 -7 27 77 125 99 117 9
-4 14 0 13 8 -4 27 0 40 10 34 6 -3 10 -1 10 5 0 6 94 106 209 221 225 227
217 222 279 183z m-1437 -5 c38 -27 72 -93 63 -122 -20 -68 -99 -121 -144 -97
-45 24 -73 104 -54 155 6 14 90 85 101 85 3 0 18 -9 34 -21z m4342 -97 c32
-24 99 -83 148 -130 73 -69 87 -87 75 -94 -9 -5 -20 -7 -24 -4 -5 3 -25 0 -44
-6 -44 -13 -46 -12 -152 87 -47 44 -107 98 -135 120 -27 22 -50 44 -50 49 -1
5 8 1 18 -8 11 -10 25 -15 32 -10 9 5 10 2 5 -12 -5 -12 -4 -15 2 -9 6 6 12
19 14 30 2 11 10 19 18 17 9 -2 8 5 -5 25 l-18 28 29 -19 c16 -11 55 -39 87
-64z m-2673 -17 c0 -6 9 -17 20 -25 20 -14 13 -22 -149 -180 -94 -91 -182
-174 -196 -185 -14 -11 -51 -44 -82 -73 -78 -72 -136 -86 -97 -23 104 165 169
247 306 384 l148 148 25 -18 c13 -10 25 -23 25 -28z m1958 -123 c36 -41 25
-40 -13 0 -19 21 -35 43 -34 50 0 7 5 5 12 -6 7 -10 22 -30 35 -44z m-1688 32
c0 -18 -318 -334 -336 -334 -7 0 -14 16 -16 36 -3 29 0 38 17 46 11 5 28 26
37 46 17 40 92 122 111 122 7 0 30 12 51 26 21 15 35 20 31 13 -5 -8 0 -6 11
4 15 15 47 34 92 56 1 0 2 -6 2 -15z m3080 -39 c34 -18 77 -64 89 -98 25 -64
9 -132 -42 -185 -63 -66 -128 -80 -188 -39 -44 29 -107 124 -113 168 -5 43 28
115 65 142 50 37 130 41 189 12z m-959 -68 c3 -5 15 -10 25 -11 10 -2 19 -7
19 -13 0 -16 35 -47 36 -31 0 9 2 8 6 -2 3 -8 20 -31 37 -50 52 -57 -17 -2
-119 95 -27 26 -41 42 -30 34 11 -8 23 -18 26 -22z m214 -65 c25 -24 45 -45
43 -47 -2 -2 -30 22 -63 53 -33 31 -53 52 -44 46 9 -5 38 -29 64 -52z m225 28
c-13 -9 -13 -11 0 -20 8 -5 10 -10 4 -10 -6 0 -17 6 -23 14 -9 11 -9 15 1 19
22 9 34 7 18 -3z m-239 -147 c13 -16 12 -17 -3 -4 -10 7 -18 15 -18 17 0 8 8
3 21 -13z m-3324 -18 c-7 -13 -14 -20 -15 -14 -2 5 2 16 8 24 18 21 20 18 7
-10z m-415 -47 c-8 -8 -9 -4 -5 13 4 13 8 18 11 10 2 -7 -1 -18 -6 -23z m339
-620 c2 -222 2 -447 1 -500 l-4 -98 -93 0 c-88 0 -93 1 -99 23 -3 12 -6 141
-6 286 l0 265 -31 -50 c-18 -27 -57 -83 -89 -124 -31 -41 -89 -119 -128 -172
-40 -53 -76 -99 -81 -102 -13 -8 -209 254 -281 375 l-45 75 3 -278 4 -278 -27
-10 c-14 -5 -64 -10 -109 -10 l-83 0 1 495 1 495 96 0 97 0 57 -92 c32 -51 81
-124 109 -163 29 -38 78 -113 111 -165 32 -52 62 -99 66 -104 4 -4 32 34 63
85 30 52 106 171 168 264 l114 170 79 6 c44 3 85 6 91 7 9 2 13 -106 15 -400z
m1307 392 c42 0 44 -1 66 -52 20 -45 267 -527 319 -623 42 -77 144 -304 139
-309 -9 -10 -206 -6 -221 3 -8 5 -35 49 -60 98 -26 48 -51 87 -57 86 -44 -8
-322 -13 -332 -5 -18 12 1 92 34 149 26 46 40 51 144 56 67 3 67 -5 -1 167
-48 119 -69 160 -69 131 0 -8 -20 -52 -44 -100 -58 -114 -129 -280 -155 -361
-12 -36 -35 -99 -52 -141 l-31 -76 -122 -6 c-66 -3 -123 -4 -124 -2 -2 2 12
41 32 87 19 46 44 106 54 133 40 101 272 561 380 753 10 18 19 22 35 18 12 -3
41 -6 65 -6z m1133 -22 c32 -14 87 -55 128 -94 85 -79 91 -77 91 34 0 61 3 72
18 73 9 1 176 4 370 8 l352 6 0 -98 0 -98 -140 3 -140 3 -2 -400 -3 -400 -96
-1 -97 0 -7 245 c-4 136 -5 315 -2 399 l6 152 -138 0 c-138 0 -138 0 -185 -31
-26 -18 -54 -42 -62 -55 l-15 -23 -44 33 c-96 74 -242 85 -359 27 -105 -51
-154 -137 -143 -251 11 -128 89 -234 193 -263 122 -34 224 -17 290 48 l41 41
49 -44 c27 -24 69 -55 93 -70 l44 -26 -59 -54 c-32 -30 -72 -61 -88 -69 -51
-26 -162 -61 -218 -68 -169 -21 -432 114 -503 258 -132 271 -52 566 185 685
135 67 331 81 441 30z m1867 12 c3 -8 34 -62 70 -120 36 -58 85 -142 108 -187
l42 -83 63 116 c35 63 88 153 117 198 l52 83 118 6 c64 2 118 4 119 3 2 -2
-20 -38 -47 -82 -28 -43 -101 -160 -162 -259 -61 -99 -123 -200 -139 -224
l-29 -44 0 -194 0 -193 -95 0 c-83 0 -95 2 -97 18 0 9 0 97 2 194 l2 177 -58
91 c-33 49 -93 149 -134 221 -41 72 -101 166 -132 209 -32 43 -58 80 -58 82 0
1 57 3 127 3 103 0 127 -3 131 -15z m1319 6 c2 -1 6 -44 10 -95 l6 -92 -221 3
-222 3 0 -92 c0 -51 0 -96 0 -100 0 -3 93 -7 207 -7 l208 -1 -3 -97 -3 -98
-205 0 -204 0 0 -100 0 -100 220 0 220 0 0 -105 0 -105 -218 0 c-121 0 -260 3
-310 6 l-90 7 -6 31 c-3 17 -8 203 -11 414 l-6 382 25 63 c13 34 26 69 29 77
4 13 43 15 288 12 156 -2 285 -4 286 -6z m-6832 -491 l0 -495 -107 0 -108 0 0
495 0 495 108 0 107 0 0 -495z m1877 470 c76 -19 128 -54 173 -111 73 -97 82
-210 25 -332 -65 -140 -146 -186 -348 -199 -98 -6 -104 -5 -127 17 -21 20 -25
32 -25 86 0 73 -7 68 131 89 55 8 109 19 120 25 34 19 59 71 59 124 0 43 -4
53 -39 87 -26 26 -48 39 -67 40 -16 0 -73 1 -126 2 l-97 2 1 -380 c1 -210 -2
-386 -6 -393 -5 -8 -38 -12 -101 -12 -75 0 -94 3 -99 16 -8 21 -8 656 1 829
l6 138 231 -6 c155 -5 250 -12 288 -22z m3370 -55 c60 -120 72 -112 -171 -108
l-210 3 -3 -98 c-2 -54 -1 -101 1 -103 2 -2 100 -4 218 -4 l213 0 0 -95 0 -95
-210 0 -210 0 0 -72 c0 -85 7 -115 26 -122 8 -3 112 -6 232 -6 l217 -1 -2
-102 -1 -102 -331 -3 -331 -2 -2 242 c-4 321 -3 342 6 561 l8 187 257 -2 256
-3 37 -75z m-2661 -920 l29 0 -1 -127 c-1 -86 -4 -115 -9 -88 -4 22 -8 33 -9
25 -1 -13 -2 -13 -11 0 -9 13 -10 13 -11 0 -1 -8 -2 -19 -4 -25 -1 -5 -3 -16
-3 -23 -1 -7 -7 -10 -12 -7 -7 4 -10 -16 -8 -57 2 -65 -9 -211 -19 -263 l-6
-30 -8 30 c-5 17 -8 155 -8 307 l1 277 25 -10 c13 -5 38 -9 54 -9z m680 -167
l29 -5 0 -332 c0 -182 -4 -337 -9 -345 -9 -14 -76 -10 -92 6 -4 4 -9 171 -11
369 l-3 362 29 -25 c16 -13 42 -27 57 -30z m-441 -8 c0 -9 -57 8 -72 22 -32
29 -19 32 27 6 25 -13 45 -26 45 -28z m912 -442 c-8 -6 -16 -30 -19 -52 -5
-40 -15 -48 -60 -57 l-21 -4 -4 252 c-2 139 -1 267 2 283 5 26 11 31 48 36 23
3 45 9 49 13 5 4 10 -97 13 -226 4 -187 2 -235 -8 -245z m-991 382 c-1 -37 2
-65 7 -65 6 0 8 17 5 39 -3 21 0 47 6 57 8 16 10 10 11 -31 0 -36 3 -46 10
-35 9 13 11 13 20 0 7 -11 10 -4 10 28 0 23 -5 42 -11 42 -5 0 -7 -4 -4 -10 3
-5 1 -18 -5 -27 -9 -15 -10 -13 -8 12 2 19 9 31 21 33 15 3 17 -5 17 -60 0
-35 3 -74 7 -87 4 -17 3 -22 -5 -17 -9 5 -9 0 -2 -19 6 -15 9 -99 9 -188 -1
-113 -4 -147 -9 -112 -4 28 -6 61 -5 75 1 14 0 19 -2 13 -2 -7 -10 -13 -17
-13 -14 0 -28 62 -27 114 0 20 -5 30 -19 33 -19 5 -20 15 -20 151 0 80 3 142
7 139 3 -4 5 -36 4 -72z m323 -17 c3 -40 3 -193 0 -340 l-7 -269 -55 3 -54 3
1 329 c1 181 4 333 7 338 3 4 27 8 53 8 l48 0 7 -72z m411 52 c12 0 26 -7 29
-16 11 -28 7 -504 -4 -504 -5 0 -10 -9 -10 -20 0 -11 5 -20 11 -20 8 0 7 -6
-2 -17 -11 -13 -11 -17 -1 -20 6 -3 12 -12 12 -22 0 -9 -6 -23 -12 -30 -10
-11 -10 -12 -1 -7 9 5 11 2 6 -11 -15 -43 -74 -58 -93 -24 -6 13 -10 146 -10
365 l0 346 26 -10 c14 -6 36 -10 49 -10z m272 -462 c-3 -7 -5 -2 -5 12 0 14 2
19 5 13 2 -7 2 -19 0 -25z m-977 -89 c0 -5 6 -9 14 -9 9 0 16 -17 21 -45 4
-31 10 -43 18 -38 9 5 9 3 0 -8 -6 -8 -11 -18 -10 -24 3 -17 -59 -17 -77 0
-18 19 -22 95 -6 125 10 19 40 18 40 -1z m445 -228 c97 -44 152 -158 124 -258
-17 -62 -89 -136 -149 -154 -36 -11 -52 -10 -108 4 -80 21 -128 56 -153 111
-25 56 -25 138 2 193 19 40 84 103 119 116 34 12 127 6 165 -12z"/>
<path d="M4987 9360 c-21 -14 -47 -62 -47 -90 0 -33 26 -75 55 -88 44 -20 75
-14 111 22 65 65 34 154 -56 162 -25 3 -53 0 -63 -6z"/>
<path d="M7119 8691 c-16 -16 -29 -37 -29 -46 0 -25 28 -73 49 -85 45 -24 111
1 130 49 15 34 5 58 -35 90 -38 30 -80 27 -115 -8z"/>
<path d="M3609 8621 c-46 -46 -34 -108 28 -140 50 -26 128 2 151 54 25 54 -39
115 -118 115 -21 0 -41 -9 -61 -29z"/>
<path d="M3541 8477 c17 -38 69 -57 154 -57 48 0 75 4 75 11 0 7 -12 9 -33 5
-45 -8 -136 10 -161 33 -37 33 -47 35 -35 8z"/>
<path d="M7854 8275 c-17 -26 -13 -67 8 -92 14 -18 59 -16 86 3 26 18 30 74 6
98 -25 26 -81 20 -100 -9z"/>
<path d="M3106 8219 c-35 -28 -35 -70 0 -98 79 -62 179 25 109 94 -30 31 -73
32 -109 4z"/>
<path d="M3060 8075 c0 -2 10 -10 23 -16 20 -11 21 -11 8 4 -13 16 -31 23 -31
12z"/>
<path d="M1713 6113 c15 -2 39 -2 55 0 15 2 2 4 -28 4 -30 0 -43 -2 -27 -4z"/>
<path d="M8425 6110 c-28 -7 -28 -8 -5 -9 14 0 32 4 40 9 17 11 8 11 -35 0z"/>
<path d="M1903 6103 c15 -2 37 -2 50 0 12 2 0 4 -28 4 -27 0 -38 -2 -22 -4z"/>
<path d="M8434 7980 c-12 -4 -31 -21 -43 -36 -50 -64 -5 -154 79 -154 107 0
142 145 45 186 -39 16 -51 16 -81 4z"/>
<path d="M5183 7273 c9 -2 23 -2 30 0 6 3 -1 5 -18 5 -16 0 -22 -2 -12 -5z"/>
<path d="M5243 7263 c9 -2 23 -2 30 0 6 3 -1 5 -18 5 -16 0 -22 -2 -12 -5z"/>
<path d="M5395 7230 c3 -5 11 -10 16 -10 6 0 7 5 4 10 -3 6 -11 10 -16 10 -6
0 -7 -4 -4 -10z"/>
<path d="M5597 7139 c7 -7 15 -10 18 -7 3 3 -2 9 -12 12 -14 6 -15 5 -6 -5z"/>
<path d="M4810 7130 c-20 -6 -21 -8 -5 -8 11 0 29 3 40 8 25 11 -1 11 -35 0z"/>
<path d="M5188 7133 c6 -2 18 -2 25 0 6 3 1 5 -13 5 -14 0 -19 -2 -12 -5z"/>
<path d="M4695 7096 c-77 -25 -150 -60 -160 -77 -4 -6 7 -4 23 5 17 9 38 16
46 16 8 0 21 6 28 14 8 7 24 17 37 21 18 5 22 4 16 -6 -5 -8 1 -6 12 4 24 21
55 23 47 3 -3 -8 0 -17 7 -22 8 -5 10 -3 4 6 -4 7 -2 16 6 21 12 7 11 9 -1 9
-11 1 -10 4 4 15 26 19 15 18 -69 -9z"/>
<path d="M4670 7038 c0 -4 6 -8 14 -8 8 0 17 4 20 8 2 4 -4 8 -15 8 -10 0 -19
-4 -19 -8z"/>
<path d="M4636 7028 c3 -4 9 -8 15 -8 5 0 9 4 9 8 0 5 -7 9 -15 9 -8 0 -12 -4
-9 -9z"/>
<path d="M4479 6983 c-13 -16 -12 -17 4 -4 16 13 21 21 13 21 -2 0 -10 -8 -17
-17z"/>
<path d="M4424 6937 c-45 -51 -61 -76 -23 -37 19 19 40 43 48 53 23 29 6 19
-25 -16z"/>
<path d="M3520 7070 c0 -5 5 -10 10 -10 6 0 10 5 10 10 0 6 -4 10 -10 10 -5 0
-10 -4 -10 -10z"/>
<path d="M4164 6834 c-11 -16 -31 -47 -43 -69 l-23 -40 26 30 c14 17 26 35 26
42 0 6 9 19 21 27 12 8 19 20 17 27 -3 8 -12 1 -24 -17z"/>
<path d="M4067 6682 c-16 -18 -40 -72 -32 -72 3 0 10 10 15 23 5 12 17 32 26
45 19 26 14 29 -9 4z"/>
<path d="M4071 6643 c-1 -6 -4 -20 -7 -30 -5 -17 -5 -17 6 0 6 10 9 23 6 30
-3 9 -5 9 -5 0z"/>
<path d="M3711 6094 c0 -11 3 -14 6 -6 3 7 2 16 -1 19 -3 4 -6 -2 -5 -13z"/>
<path d="M3730 6098 c0 -4 11 -7 25 -6 33 3 33 16 0 14 -14 0 -25 -4 -25 -8z"/>
<path d="M3790 6100 c0 -5 7 -7 15 -4 8 4 15 8 15 10 0 2 -7 4 -15 4 -8 0 -15
-4 -15 -10z"/>
<path d="M6742 6780 c-28 -27 -28 -51 2 -79 27 -26 52 -19 80 21 20 29 20 34
-4 58 -26 26 -50 25 -78 0z"/>
<path d="M4840 6583 c-34 -3 -49 -10 -60 -26 -24 -39 -130 -231 -130 -237 0
-3 186 -5 414 -5 l414 0 -30 60 c-51 102 -110 195 -129 205 -16 9 -376 11
-479 3z"/>
<path d="M4516 6134 c-36 -35 -2 -111 61 -135 35 -13 127 -11 141 3 7 7 12 27
12 45 0 28 -6 35 -37 52 -35 17 -136 51 -154 51 -4 0 -15 -7 -23 -16z"/>
<path d="M5495 6125 c-60 -25 -119 -76 -112 -98 6 -19 49 -37 91 -37 68 0 146
60 146 113 0 18 -32 47 -51 47 -8 0 -41 -11 -74 -25z"/>
<path d="M4810 6019 c0 -22 10 -41 33 -64 28 -28 42 -34 101 -40 37 -4 116 -6
175 -3 118 5 133 11 184 76 49 63 54 62 -233 62 l-260 0 0 -31z"/>
<path d="M3298 5504 c-50 -27 -49 -94 2 -145 34 -34 66 -36 101 -6 54 46 64
103 24 142 -28 29 -84 33 -127 9z"/>
<path d="M6723 5488 c-32 -15 -40 -64 -16 -96 26 -34 53 -42 91 -26 76 32 53
136 -30 133 -13 0 -33 -5 -45 -11z"/>
<path d="M2161 4754 c-26 -33 -26 -49 -1 -74 39 -39 95 -19 106 36 12 62 -65
89 -105 38z"/>
<path d="M8412 4383 c-18 -7 -42 -58 -42 -90 0 -43 50 -93 92 -93 57 1 98 48
98 114 0 30 -6 40 -32 56 -31 19 -87 25 -116 13z"/>
<path d="M1658 4375 c-58 -32 -64 -88 -15 -142 45 -48 88 -50 129 -5 38 43 38
89 0 125 -35 33 -78 42 -114 22z"/>
<path d="M1786 4165 c-11 -8 -15 -15 -9 -15 6 0 16 7 23 15 16 19 11 19 -14 0z"/>
<path d="M1646 4129 c25 -10 92 -11 97 -1 3 4 -22 7 -56 8 -36 0 -53 -3 -41
-7z"/>
<path d="M2689 3693 c-22 -25 -24 -33 -16 -71 4 -23 12 -40 17 -37 5 3 11 1
15 -4 3 -5 13 -8 23 -6 62 12 70 17 82 56 13 37 12 40 -14 64 -36 33 -76 33
-107 -2z"/>
<path d="M7858 3966 c-14 -32 -5 -54 27 -62 53 -13 101 51 56 76 -35 18 -70
12 -83 -14z"/>
<path d="M3077 3509 c7 -7 15 -10 18 -7 3 3 -2 9 -12 12 -14 6 -15 5 -6 -5z"/>
<path d="M2190 3987 c-47 -23 -29 -87 24 -87 23 0 66 33 66 50 0 14 -38 50
-52 50 -7 0 -24 -6 -38 -13z"/>
<path d="M6760 3759 c0 -5 5 -7 10 -4 6 3 10 8 10 11 0 2 -4 4 -10 4 -5 0 -10
-5 -10 -11z"/>
<path d="M3846 3587 c3 -10 9 -15 12 -12 3 3 0 11 -7 18 -10 9 -11 8 -5 -6z"/>
<path d="M7129 3721 c-37 -37 -38 -79 -3 -120 55 -65 164 -25 164 60 0 12 -15
36 -34 55 -44 44 -86 46 -127 5z"/>
<path d="M5633 1715 c0 -22 2 -30 4 -17 2 12 2 30 0 40 -3 9 -5 -1 -4 -23z"/>
<path d="M4870 1836 c0 -14 4 -27 8 -30 5 -3 6 8 4 25 -5 35 -12 38 -12 5z"/>
<path d="M4870 1713 c0 -62 10 -79 28 -47 5 8 16 16 25 18 9 1 19 5 22 9 3 4
2 5 -2 2 -12 -9 -32 16 -27 33 5 15 4 15 -9 0 -19 -24 -27 -23 -27 3 0 11 5
17 10 14 6 -3 10 -2 10 4 0 5 10 11 23 13 15 3 11 5 -15 9 l-38 5 0 -63z"/>
<path d="M4872 1610 c0 -19 2 -27 5 -17 2 9 2 25 0 35 -3 9 -5 1 -5 -18z"/>
<path d="M5331 1774 c1 -27 5 -60 9 -74 5 -15 6 2 3 45 -7 83 -13 99 -12 29z"/>
<path d="M5402 1660 c0 -14 2 -19 5 -12 2 6 2 18 0 25 -3 6 -5 1 -5 -13z"/>
<path d="M4963 1203 c-16 -11 -43 -76 -43 -104 0 -32 71 -99 105 -99 40 0 95
38 111 76 34 81 0 126 -99 131 -34 2 -67 0 -74 -4z"/>
<path d="M5166 1025 c-9 -14 -37 -35 -62 -47 -44 -22 -45 -22 -110 -5 -68 19
-93 15 -61 -8 45 -32 175 -25 212 12 24 24 48 63 43 69 -3 2 -13 -7 -22 -21z"/>
</g>
</svg>
